<svg width="60" height="61" viewBox="0 0 60 61" fill="none" xmlns="http://www.w3.org/2000/svg">
<path d="M3.75 23.3012C3.75 16.617 3.75 13.2749 5.0443 10.7219C6.18279 8.47619 7.99944 6.65039 10.2339 5.50615C12.7741 4.20532 16.0994 4.20532 22.75 4.20532H37.25C43.9006 4.20532 47.2259 4.20532 49.7661 5.50615C52.0006 6.65039 53.8172 8.47619 54.9557 10.7219C56.25 13.2749 56.25 16.617 56.25 23.3012V37.8743C56.25 44.5585 56.25 47.9006 54.9557 50.4536C53.8172 52.6993 52.0006 54.5251 49.7661 55.6693C47.2259 56.9701 43.9006 56.9701 37.25 56.9701H22.75C16.0994 56.9701 12.7741 56.9701 10.2339 55.6693C7.99944 54.5251 6.18279 52.6993 5.0443 50.4536C3.75 47.9006 3.75 44.5585 3.75 37.8743V23.3012Z" fill="white"/>
<path d="M3.75 23.3012C3.75 16.617 3.75 13.2749 5.0443 10.7219C6.18279 8.47619 7.99944 6.65039 10.2339 5.50615C12.7741 4.20532 16.0994 4.20532 22.75 4.20532H37.25C43.9006 4.20532 47.2259 4.20532 49.7661 5.50615C52.0006 6.65039 53.8172 8.47619 54.9557 10.7219C56.25 13.2749 56.25 16.617 56.25 23.3012V37.8743C56.25 44.5585 56.25 47.9006 54.9557 50.4536C53.8172 52.6993 52.0006 54.5251 49.7661 55.6693C47.2259 56.9701 43.9006 56.9701 37.25 56.9701H22.75C16.0994 56.9701 12.7741 56.9701 10.2339 55.6693C7.99944 54.5251 6.18279 52.6993 5.0443 50.4536C3.75 47.9006 3.75 44.5585 3.75 37.8743V23.3012Z" fill="url(#paint0_radial_30_545)"/>
<path d="M3.75 23.3012C3.75 16.617 3.75 13.2749 5.0443 10.7219C6.18279 8.47619 7.99944 6.65039 10.2339 5.50615C12.7741 4.20532 16.0994 4.20532 22.75 4.20532H37.25C43.9006 4.20532 47.2259 4.20532 49.7661 5.50615C52.0006 6.65039 53.8172 8.47619 54.9557 10.7219C56.25 13.2749 56.25 16.617 56.25 23.3012V37.8743C56.25 44.5585 56.25 47.9006 54.9557 50.4536C53.8172 52.6993 52.0006 54.5251 49.7661 55.6693C47.2259 56.9701 43.9006 56.9701 37.25 56.9701H22.75C16.0994 56.9701 12.7741 56.9701 10.2339 55.6693C7.99944 54.5251 6.18279 52.6993 5.0443 50.4536C3.75 47.9006 3.75 44.5585 3.75 37.8743V23.3012Z" fill="url(#paint1_radial_30_545)"/>
<path d="M3.75 23.3012C3.75 16.617 3.75 13.2749 5.0443 10.7219C6.18279 8.47619 7.99944 6.65039 10.2339 5.50615C12.7741 4.20532 16.0994 4.20532 22.75 4.20532H37.25C43.9006 4.20532 47.2259 4.20532 49.7661 5.50615C52.0006 6.65039 53.8172 8.47619 54.9557 10.7219C56.25 13.2749 56.25 16.617 56.25 23.3012V37.8743C56.25 44.5585 56.25 47.9006 54.9557 50.4536C53.8172 52.6993 52.0006 54.5251 49.7661 55.6693C47.2259 56.9701 43.9006 56.9701 37.25 56.9701H22.75C16.0994 56.9701 12.7741 56.9701 10.2339 55.6693C7.99944 54.5251 6.18279 52.6993 5.0443 50.4536C3.75 47.9006 3.75 44.5585 3.75 37.8743V23.3012Z" fill="url(#paint2_radial_30_545)"/>
<path d="M3.75 23.3012C3.75 16.617 3.75 13.2749 5.0443 10.7219C6.18279 8.47619 7.99944 6.65039 10.2339 5.50615C12.7741 4.20532 16.0994 4.20532 22.75 4.20532H37.25C43.9006 4.20532 47.2259 4.20532 49.7661 5.50615C52.0006 6.65039 53.8172 8.47619 54.9557 10.7219C56.25 13.2749 56.25 16.617 56.25 23.3012V37.8743C56.25 44.5585 56.25 47.9006 54.9557 50.4536C53.8172 52.6993 52.0006 54.5251 49.7661 55.6693C47.2259 56.9701 43.9006 56.9701 37.25 56.9701H22.75C16.0994 56.9701 12.7741 56.9701 10.2339 55.6693C7.99944 54.5251 6.18279 52.6993 5.0443 50.4536C3.75 47.9006 3.75 44.5585 3.75 37.8743V23.3012Z" fill="url(#paint3_radial_30_545)"/>
<path d="M3.75 23.3012C3.75 16.617 3.75 13.2749 5.0443 10.7219C6.18279 8.47619 7.99944 6.65039 10.2339 5.50615C12.7741 4.20532 16.0994 4.20532 22.75 4.20532H37.25C43.9006 4.20532 47.2259 4.20532 49.7661 5.50615C52.0006 6.65039 53.8172 8.47619 54.9557 10.7219C56.25 13.2749 56.25 16.617 56.25 23.3012V37.8743C56.25 44.5585 56.25 47.9006 54.9557 50.4536C53.8172 52.6993 52.0006 54.5251 49.7661 55.6693C47.2259 56.9701 43.9006 56.9701 37.25 56.9701H22.75C16.0994 56.9701 12.7741 56.9701 10.2339 55.6693C7.99944 54.5251 6.18279 52.6993 5.0443 50.4536C3.75 47.9006 3.75 44.5585 3.75 37.8743V23.3012Z" fill="url(#paint4_radial_30_545)"/>
<path d="M3.75 23.3012C3.75 16.617 3.75 13.2749 5.0443 10.7219C6.18279 8.47619 7.99944 6.65039 10.2339 5.50615C12.7741 4.20532 16.0994 4.20532 22.75 4.20532H37.25C43.9006 4.20532 47.2259 4.20532 49.7661 5.50615C52.0006 6.65039 53.8172 8.47619 54.9557 10.7219C56.25 13.2749 56.25 16.617 56.25 23.3012V37.8743C56.25 44.5585 56.25 47.9006 54.9557 50.4536C53.8172 52.6993 52.0006 54.5251 49.7661 55.6693C47.2259 56.9701 43.9006 56.9701 37.25 56.9701H22.75C16.0994 56.9701 12.7741 56.9701 10.2339 55.6693C7.99944 54.5251 6.18279 52.6993 5.0443 50.4536C3.75 47.9006 3.75 44.5585 3.75 37.8743V23.3012Z" fill="url(#paint5_radial_30_545)"/>
<path d="M3.75 23.3012C3.75 16.617 3.75 13.2749 5.0443 10.7219C6.18279 8.47619 7.99944 6.65039 10.2339 5.50615C12.7741 4.20532 16.0994 4.20532 22.75 4.20532H37.25C43.9006 4.20532 47.2259 4.20532 49.7661 5.50615C52.0006 6.65039 53.8172 8.47619 54.9557 10.7219C56.25 13.2749 56.25 16.617 56.25 23.3012V37.8743C56.25 44.5585 56.25 47.9006 54.9557 50.4536C53.8172 52.6993 52.0006 54.5251 49.7661 55.6693C47.2259 56.9701 43.9006 56.9701 37.25 56.9701H22.75C16.0994 56.9701 12.7741 56.9701 10.2339 55.6693C7.99944 54.5251 6.18279 52.6993 5.0443 50.4536C3.75 47.9006 3.75 44.5585 3.75 37.8743V23.3012Z" fill="url(#paint6_radial_30_545)"/>
<path d="M45.8812 20.1025C43.1031 17.0133 39.1875 15.277 35.1187 15.2995C31.1375 15.2995 27.0906 17.0584 24.4875 19.8995C24.0062 19.8544 23.525 19.8093 23.0656 19.8093C15.2563 19.8093 10.4219 26.5741 10.4219 32.8427C10.4437 36.2251 11.7125 39.4721 13.9656 41.9525C16.3281 44.5457 19.6094 46.0114 23.0656 46.0114H35.1187C43.3 46.0114 49.95 39.0888 49.95 30.6103C49.9062 26.7094 48.4625 22.9662 45.8812 20.1025ZM22.825 43.8016C17.0281 43.8016 12.3469 38.9535 12.3469 32.978C12.3469 27.0476 17.0062 22.2221 22.7812 22.177C25.3406 22.177 28.0312 23.0339 29.7375 24.9054L34.1344 29.5505C34.8562 30.3172 34.8344 31.5349 34.0906 32.279C33.3469 33.0231 32.1656 33.0006 31.4437 32.2339L27.1562 27.679C24.3562 25.1986 20.1344 25.5143 17.7281 28.4005C16.6781 29.6407 16.1094 31.2417 16.1094 32.8878C16.1094 36.676 19.2375 39.878 22.9344 39.878H23.7875C25.0125 41.6368 28.4469 43.8016 28.4469 43.8016H22.825ZM44.3062 39.9231C41.9656 42.4486 38.7281 43.8692 35.3375 43.8918C32.1219 43.8918 28.8406 42.4035 26.325 39.8329L20.5937 33.88C19.8719 33.1133 19.8937 31.8956 20.6156 31.1515C20.9656 30.7907 21.425 30.6104 21.9281 30.6104C22.4312 30.6104 22.9125 30.8133 23.2625 31.1966L28.9719 37.0819C30.7875 38.9535 33.1062 40.0133 35.3375 40.0133C37.7219 40.0133 39.9969 38.9986 41.6375 37.1947C43.3219 35.4133 44.2625 33.0231 44.2625 30.5427C44.2625 25.4466 40.2375 21.3201 35.2937 21.2976C33.4125 21.2976 31.8594 21.6809 30.3281 22.7858C29.4613 21.8923 27.5937 21.0045 26.7406 20.8241C29.1031 18.5466 32.0562 17.4417 35.2937 17.4417C42.3156 17.4417 47.9812 23.3045 48.0031 30.5427C48.0031 34.0378 46.6906 37.4202 44.3062 39.9231Z" fill="white"/>
<defs>
<radialGradient id="paint0_radial_30_545" cx="0" cy="0" r="1" gradientUnits="userSpaceOnUse" gradientTransform="translate(47.3906 49.3035) rotate(47.0138) scale(31.4415 32.1938)">
<stop stop-color="#68E048"/>
<stop offset="1" stop-color="#5CE049" stop-opacity="0"/>
</radialGradient>
<radialGradient id="paint1_radial_30_545" cx="0" cy="0" r="1" gradientUnits="userSpaceOnUse" gradientTransform="translate(12.0625 49.078) rotate(137.221) scale(32.0387 32.9525)">
<stop stop-color="#308CFE"/>
<stop offset="1" stop-color="#2F8BFF" stop-opacity="0"/>
</radialGradient>
<radialGradient id="paint2_radial_30_545" cx="0" cy="0" r="1" gradientUnits="userSpaceOnUse" gradientTransform="translate(46.4063 33.7446) rotate(7.93944) scale(18.7737 19.8261)">
<stop stop-color="#FDD511"/>
<stop offset="1" stop-color="#FDD20D" stop-opacity="0"/>
</radialGradient>
<radialGradient id="paint3_radial_30_545" cx="0" cy="0" r="1" gradientUnits="userSpaceOnUse" gradientTransform="translate(12.7188 23.2593) rotate(-126.996) scale(27.8094 28.2968)">
<stop stop-color="#F928C2"/>
<stop offset="1" stop-color="#F922BC" stop-opacity="0"/>
</radialGradient>
<radialGradient id="paint4_radial_30_545" cx="0" cy="0" r="1" gradientUnits="userSpaceOnUse" gradientTransform="translate(33.5 12.9995) rotate(-63.5192) scale(27.9633 28.1691)">
<stop stop-color="#F90700"/>
<stop offset="1" stop-color="#F90700" stop-opacity="0"/>
</radialGradient>
<radialGradient id="paint5_radial_30_545" cx="0" cy="0" r="1" gradientUnits="userSpaceOnUse" gradientTransform="translate(53.4063 11.872) rotate(-65.8014) scale(16.8105 16.902)">
<stop stop-color="#FB4200"/>
<stop offset="1" stop-color="#FB4300" stop-opacity="0"/>
</radialGradient>
<radialGradient id="paint6_radial_30_545" cx="0" cy="0" r="1" gradientUnits="userSpaceOnUse" gradientTransform="translate(9.21875 10.6318) rotate(-133.528) scale(14.9283 15.2942)">
<stop stop-color="#FE0D88"/>
<stop offset="1" stop-color="#FE0D88" stop-opacity="0"/>
</radialGradient>
</defs>
</svg>
