<svg width="60" height="61" viewBox="0 0 60 61" fill="none" xmlns="http://www.w3.org/2000/svg">
<path d="M3.75 22.8671C3.75 16.1829 3.75 12.8408 5.0443 10.2878C6.18279 8.04211 7.99944 6.21631 10.2339 5.07207C12.7741 3.77124 16.0994 3.77124 22.75 3.77124H37.25C43.9006 3.77124 47.2259 3.77124 49.7661 5.07207C52.0006 6.21631 53.8172 8.04211 54.9557 10.2878C56.25 12.8408 56.25 16.1829 56.25 22.8671V37.4402C56.25 44.1244 56.25 47.4665 54.9557 50.0195C53.8172 52.2652 52.0006 54.091 49.7661 55.2352C47.2259 56.5361 43.9006 56.5361 37.25 56.5361H22.75C16.0994 56.5361 12.7741 56.5361 10.2339 55.2352C7.99944 54.091 6.18279 52.2652 5.0443 50.0195C3.75 47.4665 3.75 44.1244 3.75 37.4402V22.8671Z" fill="#001E36"/>
<path d="M19.1191 38.305V21.2959C19.1191 21.1791 19.1656 21.109 19.2819 21.109C20.9865 21.109 22.6917 21.0156 24.3968 21.0156C28.0158 20.9428 31.581 23.0003 31.581 26.9033C31.581 32.1679 26.9666 32.9546 22.6996 32.9546V38.2582C22.7334 38.4283 22.5791 38.4919 22.4439 38.4919H19.3051C19.1889 38.5386 19.1191 38.4685 19.1191 38.305ZM22.6996 24.3099V29.8705C23.8133 29.9825 25.0601 29.9443 26.1173 29.5902C27.3186 29.2228 27.9773 28.2376 27.9773 26.9968C28.0247 25.9498 27.3963 24.9642 26.4196 24.5903C25.3296 24.1846 23.862 24.1152 22.6996 24.3099Z" fill="#31A8FF"/>
<path d="M41.834 28.8428C40.7991 28.298 39.5774 28.0718 38.4163 28.0718C37.8159 28.0718 36.7656 28.1307 36.7656 28.9596C36.7656 29.7293 38.1073 30.1694 38.6488 30.3615C39.5323 30.6652 40.3925 31.0624 41.183 31.5764C42.2397 32.2689 42.8803 33.3865 42.8803 34.6605C42.9678 37.5625 39.9616 38.9236 37.4398 38.866C36.1245 38.866 34.7327 38.6945 33.5338 38.1184C33.4176 38.0483 33.3478 37.9314 33.3478 37.7913V34.9175C33.3478 34.8293 33.4934 34.6726 33.5571 34.8007C34.7597 35.5168 36.1465 35.8256 37.5328 35.8754C38.1674 35.9073 39.3463 35.804 39.3463 34.9408C39.2751 34.0827 37.9887 33.7061 37.3236 33.4923C35.3756 32.8398 33.3246 31.501 33.3246 29.2166C33.3246 26.3931 36.0448 25.1046 38.5093 25.1046C39.7648 25.1046 40.9265 25.1435 41.9735 25.6419C42.1393 25.6975 42.1595 25.8367 42.1595 25.9924V28.6793C42.1595 28.847 41.9724 28.9355 41.834 28.8428Z" fill="#31A8FF"/>
<path d="M30 52.7673C29.0933 52.7673 28.233 52.4168 27.6053 51.7626L8.49393 32.5574C7.16869 31.2256 7.16869 29.0761 8.49393 27.7444L27.6053 8.5391C28.9305 7.20735 31.0695 7.20735 32.3947 8.5391L51.5061 27.7444C52.8313 29.0761 52.8313 31.2256 51.5061 32.5574L32.3947 51.7626C31.767 52.3934 30.9067 52.7673 30 52.7673ZM28.2563 51.1084C29.2095 52.0663 30.7672 52.0663 31.7205 51.1084L50.8318 31.9032C51.7851 30.9452 51.7851 29.3798 50.8318 28.4219L31.7205 9.21665C30.7672 8.25873 29.2095 8.25873 28.2563 9.21665L9.14492 28.4219C8.19168 29.3798 8.19168 30.9452 9.14492 31.9032L28.2563 51.1084Z" fill="#31A8FF"/>
</svg>
