<svg width="60" height="61" viewBox="0 0 60 61" fill="none" xmlns="http://www.w3.org/2000/svg">
<path d="M60 8.96134C60 4.20982 56.1562 0.34668 51.4286 0.34668H8.57143C3.84375 0.34668 0 4.20982 0 8.96134V52.0347C0 56.7862 3.84375 60.6493 8.57143 60.6493H51.4286C56.1562 60.6493 60 56.7862 60 52.0347V8.96134ZM24.2277 55.9247C19.7143 55.9247 17.1027 53.5826 15.7634 50.7425L20.3571 47.9562C21.2411 49.531 22.0446 50.8636 23.9866 50.8636C25.8348 50.8636 27.0134 50.1367 27.0134 47.2966V28.0347H32.6518V47.3774C32.6518 53.2461 29.2232 55.9247 24.2277 55.9247ZM35.7188 50.1367L40.3125 47.4716C41.5179 49.4503 43.0982 50.9175 45.8705 50.9175C48.2009 50.9175 49.7009 49.7464 49.7009 48.1177C49.7009 46.1794 48.1741 45.4929 45.5893 44.3488L44.183 43.743C40.1116 42.0067 37.4196 39.8126 37.4196 35.1957C37.4196 30.9422 40.6473 27.7117 45.6696 27.7117C49.2589 27.7117 51.8304 28.9635 53.6786 32.2479L49.2857 35.0745C48.3214 33.3382 47.2768 32.6517 45.6562 32.6517C44.0089 32.6517 42.9643 33.7016 42.9643 35.0745C42.9643 36.7706 44.0089 37.457 46.433 38.5204L47.8393 39.1261C52.6339 41.1856 55.3259 43.2989 55.3259 48.0369C55.3259 53.125 51.3348 55.9247 45.9911 55.9247C40.7545 55.9247 37.3661 53.4211 35.7188 50.1367Z" fill="#D2D26B"/>
</svg>
